<?xml version="1.0" encoding="iso-8859-1"?>
<!-- Generator: Adobe Illustrator 21.0.0, SVG Export Plug-In . SVG Version: 6.00 Build 0)  -->
<svg version="1.1" id="Capa_1" xmlns="http://www.w3.org/2000/svg" xmlns:xlink="http://www.w3.org/1999/xlink" x="0px" y="0px"
	 viewBox="0 0 512 512" style="enable-background:new 0 0 512 512;" xml:space="preserve">
<polygon style="fill:#5A5A5A;" points="421,91 421,422 391,452 121,452 91,422 91,91 121,61 391,61 "/>
<polygon style="fill:#444444;" points="421,91 421,422 391,452 256,452 256,61 391,61 "/>
<rect x="121" y="61" style="fill:#A8EBFA;" width="270" height="391"/>
<rect x="256" y="61" style="fill:#76E2F8;" width="135" height="391"/>
<path style="fill:#ECECF1;" d="M361,226c0,29.399-12.001,55.8-31.5,74.7h-147C163.001,281.8,151,255.4,151,226
	c0-57.9,47.1-105,105-105S361,168.1,361,226z"/>
<path style="fill:#6E6E6E;" d="M421,45v46H91V45c0-24.901,20.099-45,45-45h240C400.901,0,421,20.099,421,45z"/>
<path style="fill:#5A5A5A;" d="M421,45v46H256V0h120C400.901,0,421,20.099,421,45z"/>
<path style="fill:#FF7816;" d="M271,376c0,8.399-6.599,15-15,15s-15-6.601-15-15c0-8.401,6.599-15,15-15S271,367.599,271,376z"/>
<circle style="fill:#FF4B00;" cx="316" cy="376" r="15"/>
<circle style="fill:#FF7816;" cx="196" cy="376" r="15"/>
<path style="fill:#FF4B00;" d="M271,376c0,8.399-6.599,15-15,15v-30C264.401,361,271,367.599,271,376z"/>
<path style="fill:#6E6E6E;" d="M421,422v45c0,24.899-20.099,45-45,45H136c-24.901,0-45-20.101-45-45v-45H421z"/>
<path style="fill:#5A5A5A;" d="M256,422h165v45c0,24.899-20.099,45-45,45H256V422z"/>
<path style="fill:#E2E2E7;" d="M361,226c0,29.399-12.001,55.8-31.5,74.7H256V121C313.9,121,361,168.1,361,226z"/>
<path style="fill:#FF7816;" d="M329.5,300.7c-18.9,18.6-45,30.3-73.5,30.3s-54.6-11.7-73.5-30.3c7.2-33.9,37.2-59.7,73.5-59.7
	S322.301,266.8,329.5,300.7z"/>
<path style="fill:#FF4B00;" d="M329.5,300.7c-18.9,18.6-45,30.3-73.5,30.3v-90C292.301,241,322.301,266.8,329.5,300.7z"/>
<path style="fill:#FF9F00;" d="M286,211c0,16.5-13.5,30-30,30s-30-13.5-30-30s13.5-30,30-30S286,194.5,286,211z"/>
<path style="fill:#FF7816;" d="M286,211c0,16.5-13.5,30-30,30v-60C272.5,181,286,194.5,286,211z"/>
<g>
</g>
<g>
</g>
<g>
</g>
<g>
</g>
<g>
</g>
<g>
</g>
<g>
</g>
<g>
</g>
<g>
</g>
<g>
</g>
<g>
</g>
<g>
</g>
<g>
</g>
<g>
</g>
<g>
</g>
</svg>
